<svg class="icon" viewBox="0 0 1024 1024" version="1.1" xmlns="http://www.w3.org/2000/svg" width="200" height="200">
  <path d="M852.992 347.802C927.232 425.984 972.8 515.84 972.8 615.424 972.8 892.211 765.952 1024 516.608 1024h-9.216C258.048 1024 51.2 892.211 51.2 615.424c0-99.584 45.568-189.44 119.808-267.622a611.482 611.482 0 0 1 93.184-80.692c-39.424-20.428-65.536-57.19-65.536-99.584 0-66.918 63.488-117.964 138.752-117.964 17.408 0 33.28 3.072 47.616 8.704 7.168 2.56 12.288 5.12 16.384 7.68 2.048 1.024 7.68-0.512 9.728-3.072 5.632-8.704 14.336-18.944 26.624-29.696C459.11 14.694 484.096 2.508 512 0c27.904 2.509 52.89 14.643 74.24 33.229 12.288 10.752 20.992 20.94 26.624 29.593 2.048 2.56 7.68 4.096 9.728 3.072 4.096-2.56 9.216-5.12 16.384-7.68 14.336-5.632 30.208-8.652 47.616-8.652 75.264 0 138.752 51.046 138.752 117.964 0 42.394-26.112 79.156-65.536 99.584 4.096 2.56 8.192 5.632 12.8 9.216 27.648 20.43 54.784 44.442 80.384 71.476zM644.045 615.066c19.251 0 34.918-16.538 34.918-36.916 0-20.377-15.667-36.864-34.918-36.864h-41.216l65.126-68.761a38.349 38.349 0 0 0 0-52.122 33.638 33.638 0 0 0-49.408 0L518.502 525.978 418.51 420.403a33.638 33.638 0 0 0-49.408 0 38.349 38.349 0 0 0 0 52.122l65.126 68.761h-40.909c-19.302 0-34.918 16.487-34.918 36.864 0 20.378 15.616 36.864 34.918 36.864h90.266v36.864h-69.786c-19.302 0-34.918 16.487-34.918 36.864 0 20.378 15.616 36.864 34.918 36.864h69.786v56.73c0 20.378 15.667 36.864 34.918 36.864 19.303 0 34.97-16.486 34.97-36.864v-56.73h66.714c19.302 0 34.918-16.486 34.918-36.864 0-20.377-15.616-36.864-34.918-36.864h-66.714v-36.864h90.573z" fill="#0C66FF"/>
</svg>
