<svg width="75" height="21" viewBox="0 0 75 21" fill="none" xmlns="http://www.w3.org/2000/svg">
<g clip-path="url(#clip0_2366_3920)">
<mask id="mask0_2366_3920" style="mask-type:luminance" maskUnits="userSpaceOnUse" x="50" y="0" width="24" height="21">
<path fill-rule="evenodd" clip-rule="evenodd" d="M50 0H74V21H50V0Z" fill="white"/>
</mask>
<g mask="url(#mask0_2366_3920)">
<path fill-rule="evenodd" clip-rule="evenodd" d="M74 14.3756L69.3621 8.3778L74 2.37941H70.3375L65.7151 8.35792C65.714 8.21187 65.7128 8.06725 65.7128 7.94194L65.7125 2.90689C65.5764 1.11186 64.5201 0.133547 62.5612 -0.00012207H50V2.61737L61.2286 2.6165C61.6567 2.58827 61.9752 2.66893 62.1773 2.8559C62.3796 3.042 62.4823 3.35024 62.4823 3.77199V7.56225C62.4823 11.1477 62.5793 14.7533 62.7711 18.2889C62.9741 20.0205 63.967 20.9329 65.7228 21H72.3378V18.5715L67.2533 18.5723C66.8571 18.6017 66.5521 18.5265 66.3495 18.3546C66.1462 18.182 66.0286 17.8936 66.0008 17.5116C66.0008 17.013 65.9694 16.2043 65.9046 15.0419C65.7911 11.9811 65.7278 9.75482 65.7154 8.39797L70.3375 14.3756H74Z" fill="#0D1821"/>
</g>
<mask id="mask1_2366_3920" style="mask-type:luminance" maskUnits="userSpaceOnUse" x="0" y="0" width="75" height="21">
<path fill-rule="evenodd" clip-rule="evenodd" d="M0 21H75V0H0V21Z" fill="white"/>
</mask>
<g mask="url(#mask1_2366_3920)">
<path fill-rule="evenodd" clip-rule="evenodd" d="M30.816 11.6957H36.2953V8.64435H30.816V11.6957ZM30.816 6.03667V2.87588C30.816 2.7281 30.9359 2.60797 31.0833 2.60797H36.2953V6.03667H30.816ZM39.3612 11.6957H44.9344V8.64435H39.3612V11.6957ZM39.361 6.03667V2.60797H44.6671C44.8145 2.60797 44.9344 2.7281 44.9344 2.87588V6.03667H39.361ZM46.1562 0H29.5936C28.5772 0 27.7501 0.831104 27.7501 1.85205V11.8676C27.7501 11.9276 27.7311 17.883 26.142 20.7442L26 21H29.3788L29.4276 20.9113C29.4703 20.8335 30.4695 18.9659 30.746 14.3036H36.2953V21H39.361V14.3036H44.9344V18.1235C44.9344 18.2719 44.8145 18.392 44.6671 18.392H41.5538V21H46.1562C47.1729 21 48 20.1689 48 19.1479V1.85205C48 0.831104 47.1729 0 46.1562 0V0Z" fill="#0D1821"/>
<path fill-rule="evenodd" clip-rule="evenodd" d="M8 12H22V9.42859H8V12Z" fill="#0D1821"/>
<path fill-rule="evenodd" clip-rule="evenodd" d="M8 8.57143H22V6H8V8.57143Z" fill="#0D1821"/>
<path fill-rule="evenodd" clip-rule="evenodd" d="M4.50634 0.0769914C4.20242 -0.077007 3.86809 0.00287604 3.63483 0.290974L0 4.77106V9.13088L2.49918 6.05092V21H5V0.988292C5 0.581956 4.81096 0.233008 4.50634 0.0769914" fill="#0D1821"/>
<path fill-rule="evenodd" clip-rule="evenodd" d="M19.7357 15.7517V18.2477C19.7357 18.3897 19.6084 18.5049 19.4511 18.5049H10.5486C10.3916 18.5049 10.2643 18.3897 10.2643 18.2477V15.7517C10.2643 15.6103 10.3916 15.4954 10.5486 15.4954H19.4511C19.6084 15.4954 19.7357 15.6103 19.7357 15.7517M21.0371 13H8.96286C7.88036 13 7 13.7952 7 14.7721V19.2279C7 20.205 7.88036 21 8.96286 21H21.0371C22.1193 21 23 20.205 23 19.2279V14.7721C23 13.7952 22.1193 13 21.0371 13" fill="#0D1821"/>
<path fill-rule="evenodd" clip-rule="evenodd" d="M16.7313 0H13.2689V2.24252H7V5H23V2.24252H16.7313V0Z" fill="#0D1821"/>
</g>
</g>
<defs>
<clipPath id="clip0_2366_3920">
<rect width="75" height="21" fill="white"/>
</clipPath>
</defs>
</svg>
