<svg width="108" height="108" viewBox="0 0 108 108" fill="none" xmlns="http://www.w3.org/2000/svg">
<g clip-path="url(#clip0_2366_3694)">
<mask id="mask0_2366_3694" style="mask-type:luminance" maskUnits="userSpaceOnUse" x="0" y="0" width="108" height="108">
<path fill-rule="evenodd" clip-rule="evenodd" d="M0 0H108V108H0L0 0Z" fill="white"/>
</mask>
<g mask="url(#mask0_2366_3694)">
<path d="M54.3447 27C68.3994 27 81.3145 31.9059 91.4873 40.1064C92.2165 40.6943 93.2216 41.5889 94.121 42.4092C95.3035 43.4878 95.33 45.3292 94.2011 46.4639C93.405 47.264 92.5413 48.1323 91.9335 48.7432C81.3426 59.3886 61.9539 78.8781 55.6923 85.1719C54.5782 86.2918 52.7918 86.2918 51.6777 85.1719L16.4931 49.8047C15.7746 49.0824 14.7279 48.0296 13.8027 47.0996C12.6856 45.9767 12.6977 44.1583 13.8515 43.0732C14.7828 42.1975 15.8413 41.2264 16.6044 40.5947C26.8667 32.101 40.0132 27.0001 54.3447 27ZM53.8691 60.0176C46.3662 60.0177 39.5885 63.1352 34.7451 68.1504C36.1082 69.5206 37.4551 70.8752 38.7646 72.1914C42.581 68.1981 47.9438 65.7179 53.8691 65.7178C59.7009 65.7179 64.9879 68.1209 68.7919 72.0039C70.1008 70.6884 71.4472 69.3342 72.8115 67.9629C68.1308 63.2097 61.6923 60.2081 54.5566 60.0264L53.8691 60.0176Z" fill="url(#paint0_linear_2366_3694)"/>
<mask id="mask1_2366_3694" style="mask-type:luminance" maskUnits="userSpaceOnUse" x="12" y="27" width="84" height="60">
<path d="M54.3447 27C68.3994 27 81.3145 31.9059 91.4873 40.1064C92.2165 40.6943 93.2216 41.5889 94.121 42.4092C95.3035 43.4878 95.33 45.3292 94.2011 46.4639C93.405 47.264 92.5413 48.1323 91.9335 48.7432C81.3426 59.3886 61.9539 78.8781 55.6923 85.1719C54.5782 86.2918 52.7918 86.2918 51.6777 85.1719L16.4931 49.8047C15.7746 49.0824 14.7279 48.0296 13.8027 47.0996C12.6856 45.9767 12.6977 44.1583 13.8515 43.0732C14.7828 42.1975 15.8413 41.2264 16.6044 40.5947C26.8667 32.101 40.0132 27.0001 54.3447 27ZM53.8691 60.0176C46.3662 60.0177 39.5885 63.1352 34.7451 68.1504C36.1082 69.5206 37.4551 70.8752 38.7646 72.1914C42.581 68.1981 47.9438 65.7179 53.8691 65.7178C59.7009 65.7179 64.9879 68.1209 68.7919 72.0039C70.1008 70.6884 71.4472 69.3342 72.8115 67.9629C68.1308 63.2097 61.6923 60.2081 54.5566 60.0264L53.8691 60.0176Z" fill="white"/>
</mask>
<g mask="url(#mask1_2366_3694)">
<path opacity="0.780576" d="M62.5332 11.291C63.4849 11.2911 64.8022 11.6658 66.4238 12.3887C68.0321 13.1056 69.8886 14.1408 71.9014 15.4092C75.9264 17.9456 80.5385 21.3887 84.9814 25C89.4229 28.6101 93.686 32.3812 97.0107 35.5703C98.6732 37.165 100.098 38.6105 101.191 39.8154C102.296 41.0323 103.032 41.9707 103.35 42.5576C103.976 43.7143 104.165 45.696 104.033 48.1318C103.903 50.5372 103.47 53.2784 102.945 55.874C102.421 58.467 101.81 60.9011 101.329 62.6875C101.089 63.5803 100.882 64.3108 100.734 64.8174C100.72 64.8683 100.704 64.9166 100.69 64.9629L85.125 55.6416L69.0703 44.6582L68.9365 44.5664H59.8213L46.5 41.7969L46.3262 41.7607L46.166 41.8379L29.8936 49.7383L29.8555 49.7568L29.8213 49.7812L20.291 56.4766L5.57227 48.1084L10.2051 18.54C10.2441 18.5336 10.2862 18.5279 10.3311 18.5205C10.6572 18.4669 11.1367 18.3881 11.75 18.2881C12.9767 18.0881 14.7388 17.8019 16.8799 17.459C21.1622 16.7731 26.9605 15.8588 33.0244 14.9443C39.0887 14.0298 45.4165 13.116 50.7588 12.4307C56.1151 11.7435 60.4441 11.291 62.5332 11.291Z" fill="url(#paint1_linear_2366_3694)" stroke="url(#paint2_linear_2366_3694)" stroke-width="1.045"/>
</g>
<path d="M53.9299 39.4586C68.0736 39.4586 80.746 45.7881 89.2922 55.7672L84.9631 59.4752C77.4498 50.7021 66.3336 45.1578 53.9299 45.1578C41.3129 45.1579 30.0275 50.8946 22.512 59.9313L18.1292 56.2867C26.6774 46.0083 39.5421 39.4587 53.9299 39.4586Z" fill="white"/>
<path d="M54.6655 60.0314C55.0863 60.0438 55.5047 60.064 55.9204 60.0958C55.5047 60.064 55.0863 60.0438 54.6655 60.0314Z" fill="url(#paint3_linear_2366_3694)"/>
</g>
</g>
<defs>
<linearGradient id="paint0_linear_2366_3694" x1="12.3274" y1="41.2222" x2="36.1354" y2="92.8237" gradientUnits="userSpaceOnUse">
<stop stop-color="#EEF2F8"/>
<stop offset="1" stop-color="#CFD8E9"/>
</linearGradient>
<linearGradient id="paint1_linear_2366_3694" x1="-12.2565" y1="31.6887" x2="1.20601" y2="89.6305" gradientUnits="userSpaceOnUse">
<stop stop-color="#F9FBFF"/>
<stop offset="1" stop-color="#E8EEF8"/>
</linearGradient>
<linearGradient id="paint2_linear_2366_3694" x1="39.2442" y1="28.1739" x2="20.625" y2="57.0151" gradientUnits="userSpaceOnUse">
<stop stop-color="white" stop-opacity="0.01"/>
<stop offset="1" stop-color="white" stop-opacity="0.495875"/>
</linearGradient>
<linearGradient id="paint3_linear_2366_3694" x1="53.9901" y1="60.0658" x2="53.9953" y2="60.1734" gradientUnits="userSpaceOnUse">
<stop stop-color="#EEF2F8"/>
<stop offset="1" stop-color="#CFD8E9"/>
</linearGradient>
<clipPath id="clip0_2366_3694">
<rect width="108" height="108" fill="white"/>
</clipPath>
</defs>
</svg>
