<svg width="108" height="108" viewBox="0 0 108 108" fill="none" xmlns="http://www.w3.org/2000/svg">
<g clip-path="url(#clip0_2366_3696)">
<path fill-rule="evenodd" clip-rule="evenodd" d="M26 27C26 24.2386 28.2386 22 31 22L64 22L81.1213 39.1213C81.6839 39.6839 82 40.447 82 41.2426V81C82 83.7614 79.7614 86 77 86H31C28.2386 86 26 83.7614 26 81V27Z" fill="url(#paint0_linear_2366_3696)"/>
<rect width="32" height="4" rx="2" transform="matrix(1 0 0 -1 38 60)" fill="white"/>
<rect width="16" height="4" rx="2" transform="matrix(1 0 0 -1 38 50)" fill="white"/>
<path d="M80.793 39.5H67C65.6193 39.5 64.5 38.3807 64.5 37V23.207L80.793 39.5Z" fill="url(#paint1_linear_2366_3696)" stroke="url(#paint2_linear_2366_3696)"/>
</g>
<defs>
<linearGradient id="paint0_linear_2366_3696" x1="-4.14326" y1="56.1887" x2="49.2239" y2="105.585" gradientUnits="userSpaceOnUse">
<stop stop-color="#EEF2F8"/>
<stop offset="1" stop-color="#CFD8E9"/>
</linearGradient>
<linearGradient id="paint1_linear_2366_3696" x1="58.246" y1="29.4259" x2="66.5561" y2="51.6808" gradientUnits="userSpaceOnUse">
<stop stop-color="#F9FBFF"/>
<stop offset="1" stop-color="#E8EEF8"/>
</linearGradient>
<linearGradient id="paint2_linear_2366_3696" x1="70.1797" y1="27.6974" x2="63.5745" y2="33.338" gradientUnits="userSpaceOnUse">
<stop stop-color="white" stop-opacity="0.01"/>
<stop offset="1" stop-color="white" stop-opacity="0.495875"/>
</linearGradient>
<clipPath id="clip0_2366_3696">
<rect width="108" height="108" fill="white"/>
</clipPath>
</defs>
</svg>
