<svg width="108" height="108" viewBox="0 0 108 108" fill="none" xmlns="http://www.w3.org/2000/svg">
<g clip-path="url(#clip0_2366_3699)">
<rect x="21.5" y="32.5" width="65" height="35" rx="5.5" fill="url(#paint0_linear_2366_3699)" stroke="url(#paint1_linear_2366_3699)"/>
<rect x="27" y="22" width="54" height="51" rx="5" fill="url(#paint2_linear_2366_3699)"/>
<path d="M86.5 81C86.5 84.0376 84.0376 86.5 81 86.5H27C23.9624 86.5 21.5 84.0376 21.5 81V42.2568L22.1885 42.5371L54 55.46L85.8115 42.5371L86.5 42.2568V81Z" fill="url(#paint3_linear_2366_3699)" stroke="url(#paint4_linear_2366_3699)"/>
<rect x="29" y="70" width="12" height="4" rx="2" fill="white"/>
</g>
<defs>
<linearGradient id="paint0_linear_2366_3699" x1="7.80485" y1="37.3475" x2="12.5779" y2="78.7744" gradientUnits="userSpaceOnUse">
<stop stop-color="#EEF2F8"/>
<stop offset="1" stop-color="#CFD8E9"/>
</linearGradient>
<linearGradient id="paint1_linear_2366_3699" x1="47.598" y1="44.7798" x2="47.8714" y2="33.2405" gradientUnits="userSpaceOnUse">
<stop stop-color="white" stop-opacity="0.01"/>
<stop offset="1" stop-color="white" stop-opacity="0.50071"/>
<stop offset="1" stop-color="white" stop-opacity="0.70419"/>
</linearGradient>
<linearGradient id="paint2_linear_2366_3699" x1="16.9691" y1="64.9494" x2="84.1425" y2="64.9494" gradientUnits="userSpaceOnUse">
<stop stop-color="#F4F8FD"/>
<stop offset="1" stop-color="#F6F8FF"/>
<stop offset="1" stop-color="#E5EAF6"/>
</linearGradient>
<linearGradient id="paint3_linear_2366_3699" x1="7.80485" y1="48.4983" x2="15.3798" y2="100.483" gradientUnits="userSpaceOnUse">
<stop stop-color="#EEF2F8"/>
<stop offset="1" stop-color="#CFD8E9"/>
</linearGradient>
<linearGradient id="paint4_linear_2366_3699" x1="47.598" y1="57.898" x2="48.0351" y2="43.309" gradientUnits="userSpaceOnUse">
<stop stop-color="white" stop-opacity="0.01"/>
<stop offset="1" stop-color="white" stop-opacity="0.50071"/>
<stop offset="1" stop-color="white" stop-opacity="0.70419"/>
</linearGradient>
<clipPath id="clip0_2366_3699">
<rect width="108" height="108" fill="white"/>
</clipPath>
</defs>
</svg>
