<svg width="108" height="108" viewBox="0 0 108 108" fill="none" xmlns="http://www.w3.org/2000/svg">
<g clip-path="url(#clip0_2366_3698)">
<path opacity="0.512649" d="M29 25.2222L79 25.2222C81.4577 25.2222 83.4502 27.2147 83.4502 29.6724L83.4502 71.6724C83.4502 74.13 81.4577 76.1226 79 76.1226L29 76.1226C26.5423 76.1226 24.5498 74.13 24.5498 71.6724L24.5498 29.6724C24.5498 27.2147 26.5423 25.2222 29 25.2222Z" fill="url(#paint0_linear_2366_3698)" stroke="url(#paint1_linear_2366_3698)" stroke-width="1.1"/>
<g opacity="0.626976" filter="url(#filter0_f_2366_3698)">
<path d="M23.2993 43H84.5682" stroke="#C4CDDD" stroke-width="2"/>
</g>
<path d="M84 33.1724C87.0376 33.1724 89.5 35.6348 89.5 38.6724V80.6724C89.5 83.7099 87.0376 86.1724 84 86.1724H24C20.9624 86.1724 18.5 83.7099 18.5 80.6724V38.6724C18.5 35.6348 20.9624 33.1724 24 33.1724H84Z" fill="url(#paint2_linear_2366_3698)" stroke="url(#paint3_linear_2366_3698)"/>
<rect x="26" y="45" width="56" height="4" rx="2" fill="white"/>
<rect x="28" y="67" width="8" height="8" rx="2" fill="white"/>
</g>
<defs>
<filter id="filter0_f_2366_3698" x="15.1445" y="33.8452" width="77.5785" height="18.3097" filterUnits="userSpaceOnUse" color-interpolation-filters="sRGB">
<feFlood flood-opacity="0" result="BackgroundImageFix"/>
<feBlend mode="normal" in="SourceGraphic" in2="BackgroundImageFix" result="shape"/>
<feGaussianBlur stdDeviation="4.07742" result="effect1_foregroundBlur_2366_3698"/>
</filter>
<linearGradient id="paint0_linear_2366_3698" x1="32.4539" y1="71.5763" x2="114.274" y2="71.5763" gradientUnits="userSpaceOnUse">
<stop stop-color="#F4F8FD"/>
<stop offset="1" stop-color="#E5EAF6"/>
</linearGradient>
<linearGradient id="paint1_linear_2366_3698" x1="44.599" y1="41.1315" x2="25.2811" y2="60.1662" gradientUnits="userSpaceOnUse">
<stop stop-color="white" stop-opacity="0.01"/>
<stop offset="1" stop-color="white" stop-opacity="0.495875"/>
</linearGradient>
<linearGradient id="paint2_linear_2366_3698" x1="3.47405" y1="40.3214" x2="13.5556" y2="102.897" gradientUnits="userSpaceOnUse">
<stop stop-color="#EEF2F8"/>
<stop offset="1" stop-color="#CFD8E9"/>
</linearGradient>
<linearGradient id="paint3_linear_2366_3698" x1="64.4885" y1="32.4482" x2="57.5378" y2="56.6754" gradientUnits="userSpaceOnUse">
<stop stop-color="white" stop-opacity="0.773219"/>
<stop offset="1" stop-color="white" stop-opacity="0.01"/>
</linearGradient>
<clipPath id="clip0_2366_3698">
<rect width="108" height="108" fill="white"/>
</clipPath>
</defs>
</svg>
