<svg width="24" height="24" viewBox="0 0 24 24" fill="none" xmlns="http://www.w3.org/2000/svg">
<path d="M12.1028 2.75977C8.72751 2.75977 5.89421 5.26554 5.71216 8.50781H5.70239C3.9353 8.508 2.50328 9.9409 2.50317 11.708V13.3086C2.50338 15.0756 3.93537 16.5076 5.70239 16.5078H5.78052C6.17526 18.8626 8.03332 20.4897 10.3499 21.0361C10.5573 21.1643 10.801 21.2402 11.0627 21.2402H14.1008C14.8518 21.2401 15.4602 20.6309 15.4602 19.8799C15.4602 19.1289 14.8518 18.5197 14.1008 18.5195H11.0627C10.5526 18.5195 10.109 18.8013 9.87622 19.2168C8.30737 18.5666 7.30298 17.2195 7.30298 15.5596V8.83984C7.30316 6.40944 9.40694 4.35938 12.1028 4.35938C14.7986 4.3594 16.9024 6.40946 16.9026 8.83984V15.5596C16.9026 15.5845 16.9043 15.6094 16.9065 15.6338C16.9042 15.6582 16.9026 15.683 16.9026 15.708C16.9026 16.1497 17.2607 16.5076 17.7024 16.5078H18.2971C20.0643 16.5078 21.4971 15.0757 21.4973 13.3086V11.708C21.4972 10.007 20.1698 8.61648 18.4944 8.51465C18.316 5.26906 15.4804 2.75979 12.1028 2.75977ZM5.70239 14.9082L5.53931 14.9004C4.73253 14.8186 4.10298 14.1369 4.10278 13.3086V11.708C4.10289 10.8246 4.81896 10.1086 5.70239 10.1084V14.9082ZM18.5032 10.1221C19.2895 10.2231 19.8976 10.8942 19.8977 11.708V13.3086C19.8975 14.1222 19.2894 14.7925 18.5032 14.8936V10.1221Z" fill="#9FA5AC"/>
</svg>
