<svg width="24" height="24" viewBox="0 0 24 24" fill="none" xmlns="http://www.w3.org/2000/svg">
<path d="M11.5459 2.00031C16.3977 2.00042 20.3339 5.90717 20.334 10.7298C20.334 13.9755 17.5571 17.6268 12.0986 21.8128C11.7723 22.0629 11.3184 22.063 10.9922 21.8128C5.53377 17.6268 2.75781 13.9755 2.75781 10.7298C2.75788 5.9071 6.69404 2.00031 11.5459 2.00031ZM11.5459 3.81866C7.69519 3.81866 4.57625 6.9143 4.57617 10.7298C4.57617 13.1033 6.78457 16.1404 11.2812 19.7308L11.5459 19.9388L11.8096 19.7308C16.1741 16.246 18.3836 13.2822 18.5098 10.9407L18.5156 10.7298C18.5155 6.91435 15.3965 3.81874 11.5459 3.81866Z" fill="#0C66FF"/>
<path d="M11.5457 6.48523C13.7213 6.48526 15.4851 8.24904 15.4851 10.4247C15.4851 12.6003 13.7213 14.3641 11.5457 14.3641C9.37001 14.3641 7.60623 12.6003 7.6062 10.4247C7.6062 8.24902 9.36999 6.48523 11.5457 6.48523ZM11.5457 8.30359C10.3741 8.30359 9.42456 9.25317 9.42456 10.4247C9.4246 11.5962 10.3742 12.5458 11.5457 12.5458C12.7171 12.5457 13.6667 11.5961 13.6667 10.4247C13.6667 9.25319 12.7171 8.30363 11.5457 8.30359Z" fill="#0C66FF"/>
</svg>
