<svg t="1779818791776" class="icon" viewBox="0 0 1024 1024" version="1.1" xmlns="http://www.w3.org/2000/svg" p-id="7093" width="32" height="32"><path d="M512 938.666667C276.352 938.666667 85.333333 747.648 85.333333 512S276.352 85.333333 512 85.333333s426.666667 191.018667 426.666667 426.666667-191.018667 426.666667-426.666667 426.666667z m0-85.333334a341.333333 341.333333 0 1 0 0-682.666666 341.333333 341.333333 0 0 0 0 682.666666z m2.261333-238.549333a55.466667 55.466667 0 1 1 0 110.933333 55.466667 55.466667 0 0 1 0-110.933333zM512 298.666667a42.666667 42.666667 0 0 1 42.666667 42.666666v170.666667a42.666667 42.666667 0 0 1-85.333334 0V341.333333a42.666667 42.666667 0 0 1 42.666667-42.666666z" fill="#ffffff" p-id="7094"></path></svg>
