<svg t="1779818864746" class="icon" viewBox="0 0 1024 1024" version="1.1" xmlns="http://www.w3.org/2000/svg" p-id="9025" width="32" height="32"><path d="M512 170.666667a341.333333 341.333333 0 1 0 0 682.666666 341.333333 341.333333 0 0 0 0-682.666666zM85.333333 512C85.333333 276.352 276.352 85.333333 512 85.333333s426.666667 191.018667 426.666667 426.666667-191.018667 426.666667-426.666667 426.666667S85.333333 747.648 85.333333 512z" p-id="9026" fill="#ffffff"></path><path d="M725.504 341.461333a42.666667 42.666667 0 0 1 8.234667 59.733334l-213.333334 281.6a42.666667 42.666667 0 0 1-60.16 7.936l-153.6-119.466667a42.666667 42.666667 0 1 1 52.352-67.328l119.466667 92.928 187.264-247.168a42.666667 42.666667 0 0 1 59.733333-8.234667z" p-id="9027" fill="#ffffff"></path></svg>
