<svg t="1779818682979" class="icon" viewBox="0 0 1024 1024" version="1.1" xmlns="http://www.w3.org/2000/svg" p-id="6041" id="mx_n_1779818682980" width="32" height="32"><path d="M753.365333 270.634667a46.08 46.08 0 0 1-61.226666 3.498666 220.970667 220.970667 0 0 0-14.293334-10.581333 298.752 298.752 0 0 0-441.770666 362.666667 298.666667 298.666667 0 0 0 571.904-74.282667A45.696 45.696 0 0 1 853.333333 512h3.328a37.333333 37.333333 0 0 1 37.12 41.301333 384 384 0 1 1-151.936-348.970666c2.56 1.92 5.418667 4.181333 8.618667 6.826666a40.192 40.192 0 0 1 2.901333 59.477334z" fill="#ffffff" p-id="6042"></path></svg>
